<svg width="32" height="32" viewBox="0 0 32 32" fill="none" xmlns="http://www.w3.org/2000/svg">
<path d="M11.578 32.0007C6.81548 31.9732 2.87598 22.2512 2.87598 17.3C2.87598 9.2123 8.94316 7.44167 11.2814 7.44167C12.3352 7.44167 13.4604 7.85548 14.4528 8.22167C15.1468 8.47711 15.8645 8.7408 16.2637 8.7408C16.5027 8.7408 17.0657 8.51648 17.5629 8.31967C18.623 7.89761 19.9423 7.37305 21.4785 7.37305C21.4813 7.37305 21.485 7.37305 21.4877 7.37305C22.6348 7.37305 26.1129 7.6248 28.204 10.765L28.6938 11.5011L27.9889 12.033C26.9818 12.7929 25.1443 14.179 25.1443 16.9247C25.1443 20.1767 27.2253 21.4273 28.225 22.0288C28.6664 22.2943 29.1232 22.568 29.1232 23.1668C29.1232 23.5577 26.003 31.9522 21.4721 31.9522C20.3634 31.9522 19.5797 31.6189 18.8885 31.325C18.189 31.0275 17.5857 30.7712 16.5887 30.7712C16.0833 30.7712 15.4442 31.0101 14.7677 31.2637C13.8431 31.6088 12.7966 32.0007 11.6092 32.0007H11.578Z" fill="black"/>
<path d="M21.9581 0C22.0761 4.25475 19.0333 7.2065 15.994 7.02138C15.4932 3.62594 19.0329 0 21.9581 0Z" fill="black"/>
</svg>
