<?xml version="1.0" standalone="no"?>
<!DOCTYPE svg PUBLIC "-//W3C//DTD SVG 20010904//EN"
 "http://www.w3.org/TR/2001/REC-SVG-20010904/DTD/svg10.dtd">
<svg version="1.0" xmlns="http://www.w3.org/2000/svg"
 width="512.000000pt" height="512.000000pt" viewBox="0 0 512.000000 512.000000"
 preserveAspectRatio="xMidYMid meet">

<g transform="translate(0.000000,512.000000) scale(0.100000,-0.100000)"
fill="#000000" stroke="none">
<path d="M3927 4790 c-214 -108 -366 -297 -428 -531 -34 -125 -32 -301 5 -424
67 -222 195 -386 388 -495 l63 -36 3 -911 2 -911 -65 -51 c-155 -122 -241
-288 -252 -486 -9 -165 40 -317 143 -447 71 -90 228 -198 287 -198 14 0 36 9
50 20 l26 21 3 270 3 271 24 19 c19 16 40 19 118 19 86 0 96 -2 118 -25 l25
-24 0 -261 0 -261 25 -24 c33 -34 65 -31 149 12 93 49 207 163 259 260 102
192 103 430 1 623 -41 78 -125 176 -190 221 l-44 30 0 917 1 917 61 35 c188
108 329 290 390 505 29 104 32 305 5 404 -44 163 -102 265 -217 382 -122 124
-266 204 -329 184 -48 -15 -51 -41 -51 -387 0 -303 -1 -325 -20 -355 -26 -44
-78 -56 -210 -51 -185 7 -180 -5 -180 417 l0 332 -25 24 c-32 33 -67 32 -138
-5z m24 -761 c25 -54 76 -107 133 -137 49 -26 57 -27 211 -27 127 0 167 3 196
17 56 25 120 88 145 143 23 48 24 59 24 313 0 149 4 262 9 262 16 0 94 -70
139 -124 24 -28 61 -87 83 -131 92 -187 92 -392 -3 -585 -33 -68 -58 -102
-127 -171 -70 -71 -102 -94 -174 -129 -48 -23 -92 -50 -97 -60 -14 -26 -14
-1985 0 -2010 6 -11 36 -37 68 -59 151 -103 232 -249 232 -421 0 -131 -51
-258 -141 -346 l-49 -48 0 175 c0 211 -10 257 -71 318 -52 52 -114 71 -231 71
-115 0 -167 -14 -218 -57 -76 -66 -84 -92 -90 -312 l-5 -194 -50 54 c-90 100
-135 211 -135 339 0 172 92 335 241 425 49 30 60 43 69 75 7 26 9 359 8 1008
-3 1091 5 988 -87 1029 -267 118 -433 411 -393 693 23 160 93 293 215 406 l72
66 5 -273 c4 -224 8 -281 21 -310z"/>
<path d="M2003 4246 c-455 -87 -803 -431 -888 -879 -8 -43 -15 -94 -15 -113 0
-31 -6 -37 -79 -84 -88 -56 -175 -142 -196 -195 -31 -73 -10 -148 52 -189 44
-30 152 -56 230 -56 l52 0 16 -57 c66 -240 198 -508 356 -726 l49 -67 0 -129
0 -128 -607 -182 c-355 -106 -638 -197 -680 -217 -100 -48 -174 -119 -218
-207 l-36 -72 -20 -293 c-20 -270 -20 -294 -5 -317 29 -44 102 -46 130 -2 10
15 20 103 34 297 16 234 22 282 40 316 25 48 85 105 144 135 23 12 218 75 433
139 214 65 423 128 463 140 42 13 77 19 82 14 4 -5 85 -173 180 -374 94 -201
178 -372 187 -382 20 -23 59 -31 86 -17 21 12 268 197 353 266 l41 33 194
-149 c107 -83 204 -153 217 -156 58 -14 66 -1 254 395 98 206 179 379 181 385
2 5 119 -26 260 -68 179 -55 263 -76 282 -71 57 14 73 100 25 135 -18 14 -772
249 -797 249 -1 0 -3 58 -3 130 l0 130 61 82 c230 310 381 710 420 1111 36
370 -128 739 -430 968 -95 72 -268 155 -386 185 -124 32 -347 42 -462 20z
m422 -176 c101 -27 229 -87 309 -144 93 -67 214 -200 269 -297 54 -95 105
-242 114 -330 l6 -59 -932 0 c-931 0 -931 0 -931 20 0 46 34 179 63 250 127
308 391 520 724 580 82 15 288 4 378 -20z m270 -1006 c-176 -39 -548 -100
-765 -124 -313 -35 -766 -59 -870 -46 -87 11 -92 18 -45 67 22 23 67 59 99 80
l59 39 791 -1 c689 -1 783 -3 731 -15z m419 -86 c-41 -229 -99 -409 -194 -603
-193 -396 -424 -633 -662 -676 -115 -21 -234 13 -364 102 -194 133 -417 473
-530 808 -44 129 -43 131 43 131 130 0 631 52 923 96 282 41 577 105 710 153
77 27 81 27 74 -11z m-1317 -1305 c72 -55 198 -111 288 -129 151 -29 312 7
455 102 41 27 81 53 88 57 9 6 12 -6 12 -48 l0 -55 -222 -239 c-123 -132 -226
-238 -230 -238 -4 1 -107 108 -228 237 l-220 235 0 58 c0 31 2 57 5 57 3 0 26
-16 52 -37z m52 -428 c116 -124 211 -229 211 -234 0 -14 -263 -212 -271 -203
-18 19 -291 614 -285 620 8 7 103 39 122 41 7 1 107 -100 223 -224z m963 207
c32 -10 60 -20 63 -23 4 -4 -278 -614 -290 -627 -5 -6 -274 202 -272 210 4 14
422 457 432 457 6 0 36 -7 67 -17z"/>
<path d="M2165 3999 c-31 -16 -215 -300 -215 -332 0 -61 40 -87 131 -87 27 0
49 -2 49 -5 0 -2 -22 -39 -50 -81 -53 -81 -57 -93 -38 -127 23 -45 67 -59 109
-36 28 15 219 306 219 333 0 13 -9 35 -21 50 -19 24 -26 26 -95 26 -41 0 -74
3 -74 8 0 4 23 41 50 82 57 85 62 119 25 155 -25 26 -56 31 -90 14z"/>
</g>
</svg>
