<?xml version="1.0" standalone="no"?>
<!DOCTYPE svg PUBLIC "-//W3C//DTD SVG 20010904//EN"
 "http://www.w3.org/TR/2001/REC-SVG-20010904/DTD/svg10.dtd">
<svg version="1.0" xmlns="http://www.w3.org/2000/svg"
 width="512.000000pt" height="512.000000pt" viewBox="0 0 512.000000 512.000000"
 preserveAspectRatio="xMidYMid meet">

<g transform="translate(0.000000,512.000000) scale(0.100000,-0.100000)"
fill="#000000" stroke="none">
<path d="M626 5109 c-108 -25 -226 -122 -271 -222 -13 -29 -97 -340 -186 -692
l-162 -640 -1 -145 c0 -120 4 -159 23 -230 27 -101 98 -256 170 -367 l51 -80
0 -1176 c0 -833 3 -1191 11 -1229 24 -110 102 -218 200 -276 91 -54 -8 -52
2099 -52 1274 0 1960 4 1989 11 157 36 281 168 311 331 7 35 9 339 8 839 -3
875 2 818 -74 876 -29 21 -49 28 -98 31 -76 4 -129 -24 -163 -83 l-23 -40 0
-780 c0 -608 -3 -785 -13 -805 l-13 -25 -567 -3 -567 -2 0 697 c0 449 -4 711
-10 735 -6 21 -22 51 -37 68 -52 63 -19 60 -743 60 -711 0 -687 2 -737 -52
-54 -58 -53 -41 -53 -803 l0 -705 -564 0 -565 0 -15 22 c-14 20 -16 138 -16
1066 0 990 1 1044 18 1037 9 -3 55 -18 102 -32 77 -24 101 -27 250 -27 175 -1
220 7 362 60 142 54 305 171 397 287 l44 55 37 -47 c125 -158 310 -278 511
-333 118 -32 355 -32 474 0 197 54 380 174 508 332 19 24 37 42 39 40 73 -101
228 -235 339 -291 159 -80 260 -103 449 -104 186 0 270 18 425 95 198 98 351
251 451 455 77 158 99 253 98 435 l-1 145 -165 652 c-91 359 -176 673 -188
698 -50 103 -162 190 -278 214 -67 14 -3797 14 -3856 0z m982 -1086 c-3 -692
-5 -752 -22 -803 -78 -235 -266 -405 -496 -446 -269 -48 -533 85 -664 336 -48
91 -69 178 -69 285 0 83 13 140 157 715 91 361 164 632 173 642 15 17 50 18
470 18 l454 0 -3 -747z m1562 20 c0 -599 -3 -740 -15 -797 -44 -208 -215 -395
-420 -458 -90 -28 -233 -30 -319 -4 -164 49 -304 167 -376 317 -70 147 -70
138 -70 947 l0 722 600 0 600 0 0 -727z m1264 705 c8 -13 85 -302 170 -643
146 -580 156 -627 156 -714 0 -151 -38 -259 -134 -388 -79 -105 -213 -192
-346 -224 -30 -7 -93 -13 -140 -13 -157 1 -295 55 -410 161 -86 80 -136 154
-174 263 l-31 85 -3 748 -3 747 450 0 451 0 14 -22z m-1444 -3798 l0 -600
-430 0 -430 0 0 600 0 600 430 0 430 0 0 -600z"/>
</g>
</svg>
